<svg width="140" height="60" viewBox="0 0 140 60" fill="none" xmlns="http://www.w3.org/2000/svg">
<rect width="140" height="60" fill="white"/>
<path d="M71.3637 32.8523C70.604 32.8523 70.0564 33.1016 69.5012 33.3556V39.1037C70.033 39.1544 70.3379 39.1544 70.8425 39.1544C72.6658 39.1544 72.9158 38.3186 72.9158 37.1516V34.4063C72.9158 33.5445 72.63 32.8523 71.3637 32.8523V32.8523ZM59.2544 32.5386C57.9893 32.5386 57.7006 33.2337 57.7006 34.0947V34.5785H60.8065V34.0947C60.8065 33.2337 60.5178 32.5386 59.2544 32.5386ZM35.7963 38.5215C35.7963 39.2026 36.1174 39.5564 36.8259 39.5564C37.586 39.5564 38.0361 39.3083 38.5909 39.0534V37.6899H36.929C36.1421 37.6899 35.7963 37.8366 35.7963 38.5215ZM83.143 32.8523C81.8757 32.8523 81.4367 33.5445 81.4367 34.4063V37.5514C81.4367 38.4154 81.8757 39.1097 83.143 39.1097C84.4068 39.1097 84.8492 38.4154 84.8492 37.5514V34.4063C84.8488 33.5445 84.4063 32.8523 83.143 32.8523V32.8523ZM29.5862 42.0481H25.8612V33.0232H24V29.9135H25.8617V28.0457C25.8617 25.5084 26.9121 24 29.8979 24H32.3838V27.1106H30.83C29.6676 27.1106 29.5909 27.5453 29.5909 28.3565L29.5862 29.913H32.4009L32.0717 33.0228H29.5862V42.0481V42.0481ZM42.3168 42.0715H39.2122L39.0781 41.2856C37.6605 42.0715 36.3954 42.199 35.5608 42.199C33.284 42.199 32.0721 40.6765 32.0721 38.5709C32.0721 36.0869 33.4863 35.2004 36.016 35.2004H38.5909V34.6633C38.5909 33.3953 38.4457 33.0232 36.4976 33.0232H33.3125L33.6238 29.9135H37.1053C41.3796 29.9135 42.3168 31.265 42.3168 34.6885V42.0715V42.0715ZM52.874 33.2512C50.9421 32.9196 50.3872 32.8467 49.4577 32.8467C47.7881 32.8467 47.2835 33.2154 47.2835 34.6348V37.3195C47.2835 38.7389 47.7881 39.1093 49.4577 39.1093C50.3872 39.1093 50.9421 39.0351 52.874 38.7022V41.7357C51.1818 42.1154 50.0794 42.2152 49.1477 42.2152C45.1485 42.2152 43.5589 40.11 43.5589 37.0689V34.8905C43.5589 31.8468 45.1485 29.7378 49.1477 29.7378C50.0794 29.7378 51.1818 29.838 52.874 30.2195V33.2512V33.2512ZM64.5311 37.0689H57.7002V37.3195C57.7002 38.7389 58.2052 39.1093 59.8744 39.1093C61.3749 39.1093 62.2909 39.0351 64.2194 38.7022V41.7357C62.3594 42.1154 61.3903 42.2152 59.5657 42.2152C55.566 42.2152 53.9756 40.11 53.9756 37.0689V34.5781C53.9756 31.9171 55.1555 29.7378 59.254 29.7378C63.3524 29.7378 64.5311 31.892 64.5311 34.5781V37.0689V37.0689ZM76.6399 37.1265C76.6399 40.0657 75.8006 42.2096 70.7164 42.2096C68.8803 42.2096 67.8034 42.0481 65.777 41.7361V24.9343L69.5007 24.3124V30.1896C70.3055 29.8904 71.3471 29.7383 72.2949 29.7383C76.0191 29.7383 76.6395 31.4095 76.6395 34.0952V37.1265H76.6399ZM88.5768 37.1904C88.5768 39.726 87.531 42.1853 83.1553 42.1853C78.7775 42.1853 77.7121 39.726 77.7121 37.1904V34.7422C77.7121 32.2053 78.7775 29.7455 83.1553 29.7455C87.531 29.7455 88.5768 32.2053 88.5768 34.7422V37.1904ZM100.505 37.1904C100.505 39.726 99.4584 42.1853 95.0836 42.1853C90.7058 42.1853 89.6404 39.726 89.6404 37.1904V34.7422C89.6404 32.2053 90.7058 29.7455 95.0836 29.7455C99.4584 29.7455 100.505 32.2053 100.505 34.7422V37.1904ZM112.747 42.0481H108.711L105.297 36.3439V42.0481H101.572V24.9339L105.297 24.312V35.3295L108.711 29.9135H112.747L109.02 35.8239L112.747 42.0481V42.0481ZM95.0708 32.8523C93.8057 32.8523 93.3667 33.5445 93.3667 34.4063V37.5514C93.3667 38.4154 93.8057 39.1097 95.0708 39.1097C96.3342 39.1097 96.7813 38.4154 96.7813 37.5514V34.4063C96.7813 33.5445 96.3342 32.8523 95.0708 32.8523ZM114.873 39.9195C115.501 39.9195 116 40.4314 116 41.0708C116 41.7199 115.5 42.2263 114.869 42.2263C114.24 42.2263 113.73 41.7199 113.73 41.0708C113.73 40.4314 114.24 39.9195 114.869 39.9195H114.873V39.9195ZM114.869 40.0985C114.363 40.0985 113.95 40.5337 113.95 41.0708C113.95 41.6176 114.364 42.0472 114.873 42.0472C115.383 42.0524 115.791 41.6176 115.791 41.0759C115.791 40.5341 115.383 40.0985 114.873 40.0985H114.869V40.0985ZM114.654 41.7408H114.45V40.4561C114.557 40.4412 114.66 40.4263 114.813 40.4263C115.007 40.4263 115.134 40.4672 115.212 40.5231C115.287 40.5797 115.328 40.6663 115.328 40.7886C115.328 40.9582 115.216 41.0601 115.079 41.1014V41.1112C115.191 41.1321 115.267 41.2336 115.293 41.4224C115.323 41.6223 115.354 41.6986 115.374 41.7404H115.159C115.129 41.6986 115.098 41.5814 115.073 41.4122C115.043 41.2489 114.96 41.1875 114.797 41.1875H114.655V41.7408H114.654ZM114.654 41.0298H114.803C114.97 41.0298 115.113 40.968 115.113 40.8091C115.113 40.6965 115.032 40.5844 114.803 40.5844C114.736 40.5844 114.689 40.5895 114.654 40.5942V41.0298Z" fill="#3B5998"/>
</svg>
