<svg width="140" height="60" viewBox="0 0 140 60" fill="none" xmlns="http://www.w3.org/2000/svg">
<rect width="140" height="60" fill="white"/>
<path d="M64.3419 35.8207C64.3419 39.2908 61.5506 41.8478 58.125 41.8478C54.6994 41.8478 51.9081 39.2908 51.9081 35.8207C51.9081 32.3261 54.6994 29.7935 58.125 29.7935C61.5506 29.7935 64.3419 32.3261 64.3419 35.8207ZM61.6204 35.8207C61.6204 33.6522 60.0026 32.1685 58.125 32.1685C56.2473 32.1685 54.6296 33.6522 54.6296 35.8207C54.6296 37.9674 56.2473 39.4728 58.125 39.4728C60.0026 39.4728 61.6204 37.9647 61.6204 35.8207Z" fill="#EA4335"/>
<path d="M77.7537 35.8207C77.7537 39.2908 74.9624 41.8478 71.5368 41.8478C68.1112 41.8478 65.3199 39.2908 65.3199 35.8207C65.3199 32.3288 68.1112 29.7935 71.5368 29.7935C74.9624 29.7935 77.7537 32.3261 77.7537 35.8207ZM75.0322 35.8207C75.0322 33.6522 73.4144 32.1685 71.5368 32.1685C69.6591 32.1685 68.0413 33.6522 68.0413 35.8207C68.0413 37.9674 69.6591 39.4728 71.5368 39.4728C73.4144 39.4728 75.0322 37.9647 75.0322 35.8207Z" fill="#FBBC05"/>
<path d="M90.6066 30.1576V40.9783C90.6066 45.4294 87.9075 47.2473 84.7166 47.2473C81.7129 47.2473 79.9051 45.2935 79.2234 43.6957L81.5928 42.7364C82.0147 43.7174 83.0485 44.875 84.7138 44.875C86.7563 44.875 88.022 43.6495 88.022 41.3424V40.4756H87.9271C87.3179 41.2065 86.1444 41.8451 84.6635 41.8451C81.5648 41.8451 78.726 39.2201 78.726 35.8424C78.726 32.4402 81.5648 29.7935 84.6635 29.7935C86.1416 29.7935 87.3151 30.4321 87.9271 31.1413H88.022V30.1603H90.6066V30.1576ZM88.2148 35.8424C88.2148 33.7201 86.7591 32.1685 84.9066 32.1685C83.029 32.1685 81.4559 33.7201 81.4559 35.8424C81.4559 37.9429 83.029 39.4728 84.9066 39.4728C86.7591 39.4728 88.2148 37.9429 88.2148 35.8424Z" fill="#4285F4"/>
<path d="M94.8677 23.8152V41.4783H92.2132V23.8152H94.8677Z" fill="#34A853"/>
<path d="M105.211 37.8044L107.324 39.1739C106.642 40.1549 104.999 41.8451 102.16 41.8451C98.6397 41.8451 96.0105 39.1984 96.0105 35.8179C96.0105 32.2337 98.6621 29.7908 101.856 29.7908C105.072 29.7908 106.645 32.2799 107.159 33.625L107.441 34.3098L99.1566 37.6467C99.7909 38.856 100.777 39.4728 102.16 39.4728C103.546 39.4728 104.507 38.8098 105.211 37.8044ZM98.7096 35.6359L104.247 33.3995C103.943 32.6467 103.026 32.1223 101.948 32.1223C100.565 32.1223 98.6397 33.3098 98.7096 35.6359V35.6359Z" fill="#EA4335"/>
<path d="M41.8604 34.2527V31.6956H50.7206C50.8072 32.1413 50.8519 32.6685 50.8519 33.2391C50.8519 35.1576 50.3126 37.5299 48.5747 39.2201C46.8843 40.9321 44.7244 41.8451 41.8632 41.8451C36.56 41.8451 32.1006 37.644 32.1006 32.4864C32.1006 27.3288 36.56 23.1277 41.8632 23.1277C44.7971 23.1277 46.8871 24.2473 48.4574 25.7065L46.6021 27.5109C45.476 26.4837 43.9504 25.6848 41.8604 25.6848C37.9878 25.6848 34.959 28.7201 34.959 32.4864C34.959 36.2527 37.9878 39.288 41.8604 39.288C44.3724 39.288 45.8029 38.3071 46.7194 37.4158C47.4626 36.6929 47.9516 35.6603 48.1444 34.25L41.8604 34.2527V34.2527Z" fill="#4285F4"/>
</svg>
