<svg width="140" height="60" viewBox="0 0 140 60" fill="none" xmlns="http://www.w3.org/2000/svg">
<rect width="140" height="60" fill="white"/>
<path d="M15.8544 37.5261C17.0413 40.7418 20.6178 42.387 23.8346 41.2031C27.0493 40.011 28.6987 36.4376 27.5075 33.2208C26.3195 30.0009 22.7482 28.3578 19.5273 29.5448C16.3084 30.7359 14.6653 34.3072 15.8544 37.5261Z" fill="white"/>
<path d="M7.91144 41.5618C11.3421 41.5618 14.1231 38.7807 14.1231 35.3501C14.1231 31.9195 11.3421 29.1384 7.91144 29.1384C4.48081 29.1384 1.69974 31.9195 1.69974 35.3501C1.69974 38.7807 4.48081 41.5618 7.91144 41.5618Z" fill="white"/>
<path d="M8.96986 35.2837C8.96986 35.9171 8.45567 36.4355 7.82227 36.4355C7.18679 36.4355 6.67365 35.9171 6.67365 35.2837C6.67365 34.6514 7.18679 34.1393 7.82227 34.1393C8.45567 34.1403 8.96986 34.6514 8.96986 35.2837Z" fill="#BE3538"/>
<path d="M22.8136 35.2837C22.8136 35.9171 22.3014 36.4355 21.668 36.4355C21.0305 36.4355 20.5194 35.9171 20.5194 35.2837C20.5194 34.6514 21.0305 34.1393 21.668 34.1393C22.3014 34.1403 22.8136 34.6514 22.8136 35.2837Z" fill="#589442"/>
<path d="M4.40961 35.2838C4.40961 37.1674 5.9418 38.6965 7.82439 38.6965C9.70283 38.6965 11.234 37.1674 11.234 35.2838C11.234 33.4053 9.70179 31.8752 7.82439 31.8752C5.9418 31.8773 4.40961 33.4064 4.40961 35.2838ZM5.58622 35.2838C5.58622 34.0522 6.59283 33.0498 7.82646 33.0498C9.05802 33.0498 10.0594 34.0543 10.0594 35.2838C10.0594 36.5195 9.05802 37.523 7.82646 37.523C6.59283 37.524 5.58622 36.5216 5.58622 35.2838Z" fill="black"/>
<path d="M18.2543 35.2838C18.2543 37.1674 19.7844 38.6965 21.667 38.6965C23.5465 38.6965 25.0755 37.1674 25.0755 35.2838C25.0755 33.4053 23.5465 31.8752 21.667 31.8752C19.7854 31.8773 18.2543 33.4064 18.2543 35.2838ZM19.4309 35.2838C19.4309 34.0522 20.4344 33.0498 21.6691 33.0498C22.9006 33.0498 23.901 34.0543 23.901 35.2838C23.901 36.5195 22.9006 37.523 21.6691 37.523C20.4333 37.524 19.4309 36.5216 19.4309 35.2838Z" fill="black"/>
<path d="M19.2878 28.8906C20.0073 28.6252 20.7433 28.4967 21.47 28.477C19.49 27.5906 17.2487 27.1418 14.7659 27.1418C12.3017 27.1418 10.0283 27.601 8.04932 28.4469C11.631 28.5174 14.543 31.3226 14.7939 34.8587C14.855 34.047 15.053 33.2446 15.4034 32.4847C16.1757 30.8043 17.5566 29.5292 19.2878 28.8906Z" fill="#FFD881"/>
<path d="M27.2349 31.2688C27.5584 29.8827 28.5867 28.4947 28.5867 28.4947L23.9746 28.4915C21.3881 26.8215 18.2481 25.9362 14.768 25.9362C11.1562 25.9362 7.89487 26.8432 5.3229 28.5247L1 28.5289C1 28.5289 2.01593 29.9004 2.34456 31.2771C1.50382 32.4205 1.00415 33.8252 1.00415 35.3512C1.00415 39.1588 4.10378 42.2564 7.91353 42.2564C10.0916 42.2564 12.0332 41.2415 13.3 39.6647L14.7711 41.8676L16.2535 39.6461C16.9201 40.4941 17.7805 41.1824 18.7892 41.6489C20.4665 42.4202 22.346 42.4959 24.0762 41.8573C27.6506 40.5355 29.4855 36.5506 28.1638 32.9813C27.9316 32.3521 27.6143 31.7809 27.2349 31.2688ZM14.7669 27.1428C17.2497 27.1428 19.491 27.5917 21.4711 28.4791C20.7433 28.4988 20.0083 28.6284 19.2889 28.8917C17.5576 29.5303 16.1768 30.8054 15.4066 32.4837C15.0562 33.2436 14.8582 34.046 14.797 34.8577C14.544 31.3237 11.6321 28.5185 8.05037 28.4459C10.0283 27.601 12.3017 27.1428 14.7669 27.1428ZM12.478 38.4363C11.4859 39.899 9.80855 40.8631 7.91145 40.8631C4.86988 40.8631 2.39535 38.3865 2.39535 35.3512C2.39535 32.3075 4.87091 29.8361 7.91145 29.8361C10.952 29.8361 13.4265 32.3085 13.4265 35.3512C13.4265 35.5367 13.3902 35.7119 13.3716 35.8913C13.2793 36.8243 12.9797 37.6971 12.478 38.4363ZM23.5921 40.549C22.2102 41.057 20.7112 41.001 19.3728 40.3831C18.4233 39.9436 17.6458 39.2542 17.086 38.399C16.8579 38.0527 16.6568 37.6857 16.5096 37.2835C16.3416 36.8294 16.2577 36.3609 16.212 35.8892C16.1198 34.9323 16.2587 33.9641 16.6713 33.0674C17.2891 31.729 18.3901 30.71 19.772 30.1989C22.6259 29.1467 25.8022 30.6105 26.8565 33.4634C27.9098 36.3163 26.445 39.4926 23.5921 40.549Z" fill="black"/>
<path d="M100.083 27.0402C100.083 27.7762 100.682 28.3733 101.417 28.3733C102.156 28.3733 102.751 27.7762 102.751 27.0402C102.751 26.3052 102.154 25.7049 101.417 25.7049C100.682 25.7039 100.083 26.3052 100.083 27.0402Z" fill="#589442"/>
<path d="M36.7349 26.9458L34.7124 27.6445C34.7124 27.6445 34.7124 30.0662 34.7124 30.2828C34.5009 30.2828 32.4711 30.2828 32.4711 30.2828V32.0524C32.4711 32.0524 34.4377 32.0524 34.6512 32.0524C34.6512 32.2826 34.6512 37.7323 34.6512 37.7323C34.6512 40.4318 35.5708 41.539 37.8307 41.539C38.404 41.539 38.9513 41.4685 39.5008 41.3182L39.5899 41.2964L39.565 39.4615L39.4106 39.5206C38.9658 39.674 38.6186 39.7497 38.3501 39.7497C37.2885 39.7497 36.8946 39.1526 36.8946 37.5405C36.8946 37.5405 36.8946 32.2805 36.8946 32.0545C37.1102 32.0545 39.4811 32.0545 39.4811 32.0545V30.2828C39.4811 30.2828 37.1112 30.2828 36.8946 30.2828C36.8946 30.0641 36.8946 26.894 36.8946 26.894L36.7349 26.9458Z" fill="black"/>
<path d="M43.7262 32.0752C43.7262 31.4522 43.7262 30.2829 43.7262 30.2829H41.6747V41.3441H43.918V35.7917C43.918 33.4644 44.8956 32.182 46.6683 32.182C46.9254 32.182 47.1742 32.2204 47.4779 32.3064L47.623 32.3479L47.6966 30.1647L46.7315 30.0911C45.4315 30.089 44.3814 30.7919 43.7262 32.0752Z" fill="black"/>
<path d="M59.7344 30.0226C58.195 30.0226 56.9012 30.7514 56.0377 32.0773C56.0377 31.5476 56.0377 30.2808 56.0377 30.2808H53.9872V45.8484H56.2315C56.2315 45.8484 56.2315 40.4121 56.2315 39.814C57.0412 40.9149 58.2022 41.5203 59.6474 41.5203C62.4826 41.5203 64.3144 39.194 64.3144 35.6009C64.3155 32.2639 62.4733 30.0226 59.7344 30.0226ZM59.1083 39.7051C57.3335 39.7051 56.2315 38.1885 56.2315 35.7513C56.2315 33.3991 57.3947 31.8793 59.1943 31.8793C60.9287 31.8793 61.9653 33.3203 61.9653 35.7285C61.9653 38.1802 60.8696 39.7051 59.1083 39.7051Z" fill="black"/>
<path d="M70.8713 30.0226C69.4998 30.0226 68.2983 30.2818 67.1963 30.8115L67.1279 30.8447L67.1517 32.7594L67.328 32.6599C68.3812 32.0711 69.3785 31.7705 70.2866 31.7705C71.9111 31.7705 72.8441 32.7014 72.8441 34.329C72.8441 34.329 72.8441 34.3756 72.8441 34.4233C72.6461 34.4233 71.5607 34.4233 71.5607 34.4233C67.8681 34.4233 65.8362 35.7606 65.8362 38.1864C65.8362 40.1343 67.3031 41.4954 69.4023 41.4954C70.947 41.4954 72.1423 40.8879 72.9944 39.7455C72.9944 40.1903 72.9944 41.343 72.9944 41.343H75.0211V34.6493C75.02 31.5808 73.6247 30.0226 70.8713 30.0226ZM72.841 36.6739C72.841 38.5793 71.6944 39.8119 69.9207 39.8119C68.8343 39.8119 68.0765 39.0976 68.0765 38.0765C68.0765 36.734 69.3598 35.997 71.6892 35.997C71.6892 35.997 72.6492 35.997 72.843 35.997C72.841 36.1701 72.841 36.6739 72.841 36.6739Z" fill="#589442"/>
<path d="M84.547 25C84.547 25 84.547 31.1671 84.547 31.7829C83.7198 30.6332 82.5691 30.0237 81.0908 30.0237C78.3467 30.0237 76.5025 32.2836 76.5025 35.6414C76.5025 39.1007 78.3726 41.5162 81.0452 41.5162C82.6282 41.5162 83.8628 40.8154 84.7191 39.4522C84.7191 40.0037 84.7191 41.3441 84.7191 41.3441H86.7925V25H84.547ZM81.6267 39.6605C79.9173 39.6605 78.8557 38.1698 78.8557 35.771C78.8557 33.369 79.9266 31.8161 81.5863 31.8161C83.4388 31.8161 84.545 33.2933 84.545 35.771C84.547 38.1377 83.4046 39.6605 81.6267 39.6605Z" fill="#589442"/>
<path d="M96.8149 30.2818L93.6344 36.6698L90.6944 30.2818H88.1671L93.5878 41.3441L99.1557 30.2818H96.8149V30.2818Z" fill="#589442"/>
<path d="M102.421 30.2818H100.297V41.3441H102.543V30.2818H102.421Z" fill="#589442"/>
<path d="M105.173 33.1181C105.173 34.6742 106.241 35.4931 108.216 36.4593C109.461 37.0709 110.111 37.4317 110.111 38.2942C110.111 39.1785 109.313 39.7497 108.072 39.7497C107.195 39.7497 106.222 39.503 105.258 39.0292L105.094 38.9483L105.021 40.8983L105.096 40.9263C106.017 41.2933 106.987 41.4726 107.987 41.4726C110.73 41.4726 112.502 40.1654 112.502 38.1418C112.502 36.4552 111.38 35.5989 109.436 34.6918C108.013 34.0231 107.416 33.6334 107.416 32.9243C107.416 32.2525 108.08 31.815 109.107 31.815C110.035 31.815 110.94 32.0213 111.796 32.4298L111.958 32.5044L112.055 30.5959L111.966 30.57C111.037 30.2943 110.12 30.1553 109.236 30.1553C106.806 30.1522 105.173 31.3444 105.173 33.1181Z" fill="#589442"/>
<path d="M119.5 30.0226C116.129 30.0226 114.036 32.2421 114.036 35.8124C114.036 39.3837 116.131 41.6001 119.5 41.6001C122.887 41.6001 124.989 39.3827 124.989 35.8124C124.989 32.2432 122.885 30.0226 119.5 30.0226ZM119.52 39.7694C117.657 39.7694 116.406 38.1708 116.406 35.7907C116.406 33.398 117.657 31.7933 119.52 31.7933C121.413 31.7933 122.636 33.3638 122.636 35.7907C122.636 38.2082 121.415 39.7694 119.52 39.7694Z" fill="#589442"/>
<path d="M129.128 32.0753C129.128 31.4522 129.128 30.2829 129.128 30.2829H127.076V41.3441H129.32V35.7917C129.32 33.4644 130.292 32.1821 132.067 32.1821C132.322 32.1821 132.57 32.2204 132.867 32.3065L133.018 32.3479L133.088 30.1647L132.127 30.0911C130.832 30.089 129.784 30.7919 129.128 32.0753Z" fill="#589442"/>
<path d="M51.694 30.2818H49.5709V41.3441H51.8143V30.2818H51.694Z" fill="black"/>
<path d="M49.3532 27.0402C49.3532 27.7762 49.9535 28.3733 50.6874 28.3733C51.4235 28.3733 52.0216 27.7762 52.0216 27.0402C52.0216 26.3052 51.4235 25.7049 50.6874 25.7049C49.9535 25.7039 49.3532 26.3052 49.3532 27.0402Z" fill="black"/>
<path d="M138.439 29.7925C138.807 30.1647 139 30.6602 139 31.1931C139 31.7497 138.792 32.2484 138.409 32.6154C138.01 32.9948 137.514 33.198 136.998 33.198C136.458 33.198 135.962 32.9854 135.575 32.5863C135.206 32.2038 134.997 31.7145 134.997 31.192C134.997 30.6592 135.21 30.1429 135.607 29.751C135.979 29.3861 136.459 29.1871 136.998 29.1871C137.551 29.1871 138.055 29.3965 138.439 29.7925ZM135.856 30.0123C135.532 30.3357 135.359 30.7525 135.359 31.1931C135.359 31.6222 135.519 32.0162 135.829 32.3313C136.139 32.6548 136.55 32.8299 136.991 32.8299C137.42 32.8299 137.832 32.6651 138.15 32.3562C138.463 32.0556 138.635 31.643 138.635 31.192C138.635 30.7514 138.475 30.3513 138.172 30.0444C137.853 29.721 137.449 29.5499 136.999 29.5499C136.554 29.5499 136.166 29.7085 135.856 30.0123ZM137.034 30.0496C137.662 30.0496 137.984 30.2766 137.984 30.6882C137.984 30.9712 137.816 31.191 137.517 31.2812L138.01 32.2463H137.342L136.931 31.3755H136.757V32.2463H136.151V30.0486L137.034 30.0496ZM136.752 31.0179H136.963C137.232 31.0179 137.362 30.9235 137.362 30.7348C137.362 30.5192 137.226 30.4311 136.931 30.4311H136.752V31.0179Z" fill="#ABC99F"/>
</svg>
