<svg width="140" height="60" viewBox="0 0 140 60" fill="none" xmlns="http://www.w3.org/2000/svg">
<rect width="140" height="60" fill="white"/>
<g clip-path="url(#clip0)">
<path d="M103.839 33.0081C103.418 32.6717 103.348 32.6202 100.815 31.7392C103.009 31.1693 103.103 31.1087 103.493 30.8386C104.374 30.2082 104.844 29.1623 104.776 28.0295L104.767 27.9059C104.588 26.0877 102.37 22.6573 100.876 21.8872C99.8913 21.3906 98.7956 21.4604 97.933 22.0726C97.5266 22.3564 97.4724 22.3953 95.8045 24.7993C95.642 21.9902 95.3288 17.0368 95.2518 16.5734L95.2356 16.467L95.2106 16.364C94.9256 15.2758 94.1172 14.4588 93.0464 14.175C91.2594 13.7048 86.5332 15.111 85.2652 16.491C84.5207 17.3114 84.2346 18.4156 84.4914 19.4511L84.5434 19.6571L84.6312 19.8482C84.7526 20.1125 85.0723 20.672 87.8152 25.2158L88.8264 26.8979C86.3706 25.8372 86.2731 25.8337 85.7648 25.8291C84.797 25.7845 83.8271 26.3315 83.243 27.2972L83.2321 27.3155C82.9309 27.8281 82.7444 28.525 82.6285 29.255C81.8374 28.1291 80.6463 27.2263 78.8408 26.8521C77.5609 26.5809 76.3602 26.7445 75.2287 27.2274C74.1927 26.5294 72.7687 26.4482 71.5776 27.1656C71.2103 27.3865 70.935 27.6496 70.7193 27.93V26.3875L70.6055 25.471L70.5709 25.3062C70.3313 24.3119 69.6204 23.4732 68.6689 23.0612L68.6602 23.0566C67.6155 22.6115 66.444 22.718 65.4502 23.3461C64.3914 24.0064 63.8484 25.1026 63.8484 26.6015V29.747C63.4713 29.1269 63.0053 28.5891 62.4537 28.1474C60.9668 26.9574 58.9727 26.5557 56.6904 26.9883C55.3671 27.2308 54.2606 27.8407 53.3839 28.7355C53.3698 28.7069 53.3557 28.6714 53.3416 28.6428C52.8962 27.8007 52.1734 27.2217 51.2479 26.9654C49.7025 26.518 47.7409 27.0729 46.9313 29.9908C46.9313 29.9908 46.8002 30.4622 46.6203 31.1064C46.2659 30.4198 45.3469 28.5444 45.309 28.4884C44.481 27.1633 42.8229 26.5889 41.3404 27.2114C39.9077 27.7812 39.0786 29.112 39.0786 30.6762C39.0786 31.1693 39.1599 31.6831 39.33 32.2049L39.3723 32.3319C39.3723 32.3319 42.3157 38.6618 43.1675 40.4938C41.7988 40.8748 40.8234 41.9527 40.6652 43.431C40.6489 43.5718 40.6403 43.7136 40.6403 43.8532C40.6403 44.7938 41.0098 45.692 41.6882 46.3511C42.7178 47.3546 44.3174 47.6865 46.1955 47.2802C48.2362 46.8569 49.4098 45.5582 50.2324 42.804L51.4841 38.6515C51.8916 40.3999 52.6329 41.5419 53.3362 42.2742C54.3473 43.3303 56.1994 44.4986 59.2653 44.0615C61.5433 43.7251 63.1202 42.6484 63.972 41.3828L64.0273 41.6883C64.27 42.5911 64.93 43.3933 65.8165 43.8201C66.7431 44.2732 67.816 44.2652 68.7567 43.7995C69.2476 43.5741 69.6638 43.2182 69.9878 42.7731V44.0821C69.9878 46.2459 71.1734 47.1658 71.88 47.5228C72.8023 48.0126 73.9066 48.0515 74.8679 47.6109C75.776 47.1956 76.4501 46.4049 76.7145 45.4449L76.7557 45.2973L76.8793 44.4048C76.8793 44.4048 76.8793 44.0604 76.8793 44.0214C78.1115 44.1542 79.3979 43.9425 80.5304 43.3223C81.0311 43.0477 81.4689 42.717 81.8601 42.3371H82.6924C83.1454 42.5889 83.6602 42.7456 84.214 42.7456C84.77 42.7456 85.2836 42.5889 85.7356 42.3371H88.149C89.7475 43.2868 92.0841 44.0066 93.3347 43.78C94.4119 43.5786 95.2605 42.8463 95.6192 41.8199L95.6376 41.7684C95.7894 41.3016 95.8143 41.2146 95.8251 38.5771C97.195 40.9137 97.2665 40.9755 97.6512 41.2959C98.4781 41.9767 99.5651 42.1266 100.569 41.6998C102.18 41.0167 104.642 37.7121 104.889 35.8985C104.91 35.7406 104.922 35.5804 104.922 35.4236C104.922 34.4739 104.534 33.594 103.839 33.0081ZM78.8322 26.8498C78.8354 26.8521 78.8376 26.8521 78.8408 26.8521C78.843 26.8544 78.8452 26.8544 78.8484 26.8544L78.8322 26.8498ZM100.571 41.6998H100.569C100.565 41.6998 100.564 41.7032 100.561 41.7044L100.571 41.6998Z" fill="white"/>
<path d="M103.839 33.0081C103.418 32.6717 103.348 32.6202 100.815 31.7392C103.009 31.1693 103.103 31.1087 103.493 30.8386C104.374 30.2082 104.844 29.1623 104.776 28.0295L104.767 27.9059C104.588 26.0877 102.37 22.6573 100.876 21.8872C99.8913 21.3906 98.7956 21.4604 97.933 22.0726C97.5266 22.3564 97.4724 22.3953 95.8045 24.7993C95.642 21.9902 95.3288 17.0368 95.2518 16.5734L95.2356 16.467L95.2106 16.364C94.9256 15.2758 94.1172 14.4588 93.0464 14.175C91.2594 13.7048 86.5332 15.111 85.2652 16.491C84.5207 17.3114 84.2346 18.4156 84.4914 19.4511L84.5434 19.6571L84.6312 19.8482C84.7526 20.1125 85.0723 20.672 87.8152 25.2158L88.8264 26.8979C86.3706 25.8372 86.2731 25.8337 85.7648 25.8291C84.797 25.7845 83.8271 26.3315 83.243 27.2972L83.2321 27.3155C82.9309 27.8281 82.7444 28.525 82.6285 29.255C81.8374 28.1291 80.6463 27.2263 78.8408 26.8521C77.5609 26.5809 76.3602 26.7445 75.2287 27.2274C74.1927 26.5294 72.7687 26.4482 71.5776 27.1656C71.2103 27.3865 70.935 27.6496 70.7193 27.93V26.3875L70.6055 25.471L70.5709 25.3062C70.3313 24.3119 69.6204 23.4732 68.6689 23.0612L68.6602 23.0566C67.6155 22.6115 66.444 22.718 65.4502 23.3461C64.3914 24.0064 63.8484 25.1026 63.8484 26.6015V29.747C63.4713 29.1269 63.0053 28.5891 62.4537 28.1474C60.9668 26.9574 58.9727 26.5557 56.6904 26.9883C55.3671 27.2308 54.2606 27.8407 53.3839 28.7355C53.3698 28.7069 53.3557 28.6714 53.3416 28.6428C52.8962 27.8007 52.1734 27.2217 51.2479 26.9654C49.7025 26.518 47.7409 27.0729 46.9313 29.9908C46.9313 29.9908 46.8002 30.4622 46.6203 31.1064C46.2659 30.4198 45.3469 28.5444 45.309 28.4884C44.481 27.1633 42.8229 26.5889 41.3404 27.2114C39.9077 27.7812 39.0786 29.112 39.0786 30.6762C39.0786 31.1693 39.1599 31.6831 39.33 32.2049L39.3723 32.3319C39.3723 32.3319 42.3157 38.6618 43.1675 40.4938C41.7988 40.8748 40.8234 41.9527 40.6652 43.431C40.6489 43.5718 40.6403 43.7136 40.6403 43.8532C40.6403 44.7938 41.0098 45.692 41.6882 46.3511C42.7178 47.3546 44.3174 47.6865 46.1955 47.2802C48.2362 46.8569 49.4098 45.5582 50.2324 42.804L51.4841 38.6515C51.8916 40.3999 52.6329 41.5419 53.3362 42.2742C54.3473 43.3303 56.1994 44.4986 59.2653 44.0615C61.5433 43.7251 63.1202 42.6484 63.972 41.3828L64.0273 41.6883C64.27 42.5911 64.93 43.3933 65.8165 43.8201C66.7431 44.2732 67.816 44.2652 68.7567 43.7995C69.2476 43.5741 69.6638 43.2182 69.9878 42.7731V44.0821C69.9878 46.2459 71.1734 47.1658 71.88 47.5228C72.8023 48.0126 73.9066 48.0515 74.8679 47.6109C75.776 47.1956 76.4501 46.4049 76.7145 45.4449L76.7557 45.2973L76.8793 44.4048C76.8793 44.4048 76.8793 44.0604 76.8793 44.0214C78.1115 44.1542 79.3979 43.9425 80.5304 43.3223C81.0311 43.0477 81.4689 42.717 81.8601 42.3371H82.6924C83.1454 42.5889 83.6602 42.7456 84.214 42.7456C84.77 42.7456 85.2836 42.5889 85.7356 42.3371H88.149C89.7475 43.2868 92.0841 44.0066 93.3347 43.78C94.4119 43.5786 95.2605 42.8463 95.6192 41.8199L95.6376 41.7684C95.7894 41.3016 95.8143 41.2146 95.8251 38.5771C97.195 40.9137 97.2665 40.9755 97.6512 41.2959C98.4781 41.9767 99.5651 42.1266 100.569 41.6998C102.18 41.0167 104.642 37.7121 104.889 35.8985C104.91 35.7406 104.922 35.5804 104.922 35.4236C104.922 34.4739 104.534 33.594 103.839 33.0081Z" stroke="#BDBCBC" stroke-width="0.71428" stroke-linecap="round" stroke-linejoin="round"/>
<path d="M78.8321 26.8496C78.8369 26.852 78.8381 26.852 78.8416 26.852C78.8451 26.8544 78.8463 26.8544 78.851 26.8544L78.8321 26.8496Z" stroke="#BDBCBC" stroke-width="0.71428" stroke-linecap="round" stroke-linejoin="round"/>
<path d="M100.573 41.6995H100.57C100.567 41.6995 100.566 41.7032 100.562 41.7044L100.573 41.6995Z" stroke="#BDBCBC" stroke-width="0.71428" stroke-linecap="round" stroke-linejoin="round"/>
<path d="M84.6702 29.3443C84.279 30.0057 84.1153 32.0836 84.2508 33.4647C84.2974 33.9201 84.3744 34.3 84.4903 34.5254C84.6464 34.8401 84.9086 35.0277 85.2077 35.038C85.3974 35.0483 85.5177 35.0152 89.1244 33.7874C89.1244 33.7874 90.7272 33.2496 90.7359 33.2462C91.1325 33.1375 91.4035 32.7507 91.4295 32.2552C91.4555 31.7461 91.2051 31.2987 90.7977 31.1362L89.6662 30.6487C85.7886 28.9598 85.6163 28.8958 85.4191 28.8935C85.121 28.8786 84.8555 29.0399 84.6702 29.3443Z" fill="#E9E9E9"/>
<path d="M93.339 41.9218C93.403 41.7296 93.4095 41.598 93.4192 37.5977C93.4192 37.5977 93.429 35.8299 93.4322 35.8104C93.4561 35.3802 93.1917 34.9843 92.756 34.8069C92.3084 34.6238 91.8261 34.736 91.5541 35.093C91.5541 35.093 90.7652 36.0816 90.7619 36.0827C88.0472 39.4525 87.9334 39.6059 87.8683 39.8072C87.8272 39.924 87.8109 40.0475 87.8239 40.1734C87.8412 40.3508 87.916 40.5304 88.045 40.6906C88.6736 41.4836 91.6939 42.6564 92.6563 42.4825C92.9912 42.4184 93.2361 42.217 93.339 41.9218Z" fill="#E9E9E9"/>
<path d="M99.4621 40.5293C100.375 40.146 102.362 37.4776 102.501 36.4524C102.549 36.0942 102.443 35.7876 102.209 35.5896C102.059 35.4683 101.938 35.4214 98.3372 34.1719C98.3372 34.1719 96.7539 33.6204 96.7365 33.6112C96.3518 33.4533 95.9162 33.5986 95.6225 33.9819C95.3169 34.3744 95.2692 34.8905 95.5152 35.2829L96.1513 36.3757C98.2917 40.0464 98.4532 40.305 98.6071 40.4332C98.8455 40.6288 99.15 40.6643 99.4621 40.5293Z" fill="#E9E9E9"/>
<path d="M97.6035 31.0823C101.7 30.0365 101.857 29.9816 102.02 29.8694C102.268 29.6909 102.39 29.398 102.37 29.0353C102.37 29.0227 102.371 29.0124 102.37 28.9998C102.264 27.9391 100.503 25.1758 99.6345 24.7272C99.3256 24.5728 99.0178 24.583 98.7642 24.7616C98.606 24.8737 98.4879 25.0339 96.2965 28.2034C96.2965 28.2034 95.3049 29.6292 95.293 29.6417C95.0318 29.9759 95.0286 30.4576 95.2822 30.8707C95.5455 31.2975 95.9942 31.5057 96.4038 31.3856C96.4038 31.3856 96.3854 31.4153 96.3822 31.4222C96.5827 31.3409 96.9468 31.2471 97.6035 31.0823Z" fill="#E9E9E9"/>
<path d="M93.4896 27.5112C93.4181 25.7971 92.9315 18.1662 92.8741 17.8138C92.7906 17.4911 92.5533 17.2634 92.2119 17.173C91.1683 16.8984 87.1704 18.0827 86.4302 18.8893C86.1939 19.1502 86.1051 19.4741 86.1755 19.7601C86.2915 20.0119 91.2431 28.2378 91.2431 28.2378C91.9757 29.4919 92.5728 29.2962 92.7679 29.2322C92.9629 29.1681 93.5568 28.9724 93.4896 27.5112Z" fill="#E9E9E9"/>
<path d="M84.9975 28.4792C84.6074 29.1395 84.4426 31.2186 84.5781 32.5985C84.6258 33.0539 84.7038 33.4338 84.8176 33.6604C84.9737 33.9739 85.2359 34.1604 85.535 34.1718C85.7269 34.1821 85.8461 34.1478 89.4527 32.9235C89.4527 32.9235 91.0556 32.3834 91.0621 32.38C91.462 32.2724 91.7308 31.8845 91.7568 31.389C91.7828 30.881 91.5346 30.4325 91.1249 30.27C91.1249 30.27 89.9946 29.7837 89.9924 29.7837C86.117 28.0959 85.9425 28.0296 85.7474 28.0273C85.4483 28.0147 85.1828 28.1737 84.9975 28.4792Z" fill="#BF2519"/>
<path d="M93.6674 41.0545C93.7302 40.8623 93.7378 40.7307 93.7487 36.7304C93.7487 36.7304 93.7573 34.9625 93.7584 34.9454C93.7844 34.5117 93.5189 34.117 93.0843 33.9407C92.6368 33.7588 92.1545 33.8709 91.8836 34.2268C91.8836 34.2268 91.0924 35.2177 91.0903 35.2177C88.3755 38.5852 88.2617 38.7408 88.1956 38.9399C88.1555 39.0566 88.1393 39.1825 88.1523 39.3072C88.1685 39.4857 88.2455 39.6619 88.3723 39.8267C89.0019 40.6162 92.0212 41.7891 92.9857 41.6152C93.3206 41.5511 93.5644 41.352 93.6674 41.0545Z" fill="#BF2519"/>
<path d="M99.7926 39.6619C100.703 39.2786 102.688 36.6114 102.828 35.585C102.877 35.228 102.771 34.9202 102.538 34.7234C102.385 34.6021 102.269 34.5552 98.6645 33.3056C98.6645 33.3056 97.0833 32.7541 97.0627 32.7438C96.6802 32.5871 96.2434 32.7324 95.9497 33.1146C95.6441 33.507 95.5986 34.0254 95.8424 34.4167L96.4786 35.5106C98.6179 39.179 98.7815 39.4388 98.9354 39.5658C99.1738 39.7637 99.4773 39.7958 99.7926 39.6619Z" fill="#BF2519"/>
<path d="M97.9297 30.2174C102.026 29.1692 102.184 29.1143 102.346 29.0022C102.594 28.826 102.719 28.5308 102.697 28.1715C102.697 28.16 102.699 28.1474 102.697 28.1348C102.592 27.073 100.83 24.3108 99.9617 23.8622C99.6539 23.7066 99.3462 23.7169 99.0904 23.8977C98.9322 24.0064 98.8162 24.1712 96.6227 27.3385C96.6227 27.3385 95.6322 28.763 95.6203 28.7768C95.3591 29.112 95.3548 29.5926 95.6105 30.0045C95.8749 30.4313 96.3214 30.6396 96.7311 30.5194C96.7311 30.5194 96.7148 30.5503 96.7105 30.5561C96.9121 30.476 97.273 30.3821 97.9297 30.2174Z" fill="#BF2519"/>
<path d="M93.818 26.6461C93.7476 24.9321 93.2588 17.3 93.2014 16.9464C93.119 16.626 92.8817 16.3972 92.5414 16.3068C91.4956 16.0333 87.4988 17.2153 86.7586 18.022C86.5201 18.284 86.4324 18.6067 86.5039 18.8928C86.6209 19.1456 91.5725 27.3716 91.5725 27.3716C92.304 28.6245 92.9012 28.43 93.0973 28.3648C93.2913 28.3019 93.8852 28.1073 93.818 26.6461Z" fill="#BF2519"/>
<path d="M43.0971 44.7366C43.6129 45.2412 44.5905 45.3843 45.7782 45.1291C46.8912 44.8968 47.5816 44.3716 48.2459 42.1415L51.5545 31.1659C51.7258 30.5835 51.7128 30.0777 51.5166 29.7024C51.3573 29.4004 51.0918 29.1955 50.7168 29.0903C50.1273 28.9198 49.3914 28.9369 48.9276 30.6098L47.1914 36.8356C47.1914 36.8356 43.6552 29.7825 43.653 29.7814C43.4298 29.31 42.7752 28.9724 42.1087 29.2516C41.2396 29.6006 40.9502 30.4256 41.297 31.4886C41.297 31.4886 45.5983 40.7306 45.6081 40.7558C45.6081 40.7558 45.7251 41.0853 45.7251 41.1391C45.7251 41.1391 45.7642 41.3897 45.7642 41.3989C45.7555 41.7547 45.6428 42.0545 45.4412 42.2548C45.2429 42.4516 44.9676 42.5546 44.6457 42.5408C44.6457 42.5408 43.9749 42.5248 43.924 42.5248C43.2347 42.6141 42.8012 43.0317 42.7319 43.6771C42.6831 44.0924 42.8099 44.4574 43.0971 44.7366Z" fill="#231F20"/>
<path d="M60.0456 34.3298H55.4397C55.3151 34.2336 55.2544 34.0723 55.3476 33.5871C55.4061 33.332 55.469 33.1031 55.6532 32.7827C55.7128 32.6866 55.7746 32.5882 55.8342 32.4898C56.1713 32.0401 56.6275 31.7518 57.1466 31.6236C58.7657 31.206 59.895 32.0745 60.0781 33.5563C60.1659 34.2027 60.1085 34.3298 60.0456 34.3298ZM62.8763 33.483C62.7279 31.8971 62.1481 30.659 61.1976 29.9004C60.1854 29.0891 58.7527 28.8305 57.0567 29.1509C54.9304 29.54 53.6537 31.1442 53.3611 33.7965C53.0013 36.9672 53.4955 39.3564 54.7949 40.7078C55.7746 41.7296 57.2236 42.1358 58.9857 41.884C61.4989 41.511 62.6292 40.0544 62.6292 39.1333C62.6292 38.4559 62.2413 37.9227 61.6712 37.8414C61.345 37.7728 61.0697 37.8414 60.4607 38.417C59.5829 39.2248 58.5652 39.5498 57.6636 39.3084C56.9765 39.1241 56.44 38.6241 56.1973 37.9387C56.1973 37.9387 56.0889 37.4856 56.0954 37.5359C56.0217 37.1274 55.9881 36.7224 56.2265 36.5576L56.2905 36.5118H61.811C62.3204 36.5118 62.5783 36.442 62.7268 36.2727C63.0302 35.9168 63.0064 34.9007 62.8763 33.483" fill="#231F20"/>
<path d="M67.881 25.0957C67.4443 24.9081 66.9512 24.9584 66.5188 25.2308C66.1026 25.4905 65.9292 25.8864 65.9292 26.6016V40.4995C65.9292 40.4995 66.0018 40.9961 66.0094 41.0178C66.1026 41.3646 66.3454 41.6598 66.6824 41.8211C67.0563 42.0042 67.4876 42.0007 67.8734 41.8097C68.3535 41.59 68.6364 41.0831 68.6364 40.4549V26.5306C68.6364 26.5306 68.5529 25.8578 68.5529 25.8452C68.476 25.5225 68.2235 25.2433 67.881 25.0957Z" fill="#231F20"/>
<path d="M78.2979 39.2122C76.475 39.2122 76.1846 37.5039 76.1272 36.2143C76.1239 36.2109 76.1033 35.4591 76.1033 35.4591C76.1033 35.4591 76.1239 34.9007 76.1239 34.879C76.242 32.6477 76.6788 31.7678 77.7939 31.5229C78.5428 31.3398 79.115 31.4291 79.5442 31.7941C80.189 32.3422 80.4729 33.5025 80.4469 35.4385C80.4285 37.7053 80.0546 39.2122 78.2979 39.2122ZM78.4333 29.0079C77.212 28.7447 76.1673 28.9655 75.1626 29.6841C75.1626 29.6841 75.0499 29.7802 75.0066 29.8077L74.9166 29.8558L74.6414 29.9862L74.5633 29.6601L74.4972 29.5422L74.4745 29.469L74.4669 29.4473C74.4669 29.4473 74.3997 29.3523 74.3899 29.3374C74.1017 28.8637 73.3181 28.6463 72.6115 29.072C72.2658 29.2791 72.0675 29.5708 72.0675 30.4416V44.0821C72.0675 44.8293 72.2896 45.2939 72.7752 45.5387C73.1848 45.7561 73.6454 45.7733 74.041 45.5936C74.3769 45.438 74.624 45.1634 74.7161 44.8293L74.7974 44.2446V41.884L74.7736 41.5041L74.7833 41.392L74.7974 41.3382L74.9307 40.8885L75.3349 41.1723C75.3349 41.1723 75.4368 41.2432 75.4802 41.2913L75.6015 41.376C75.6026 41.3771 75.7424 41.4629 75.7424 41.4629C75.7446 41.4629 75.8725 41.5293 75.8725 41.5293C76.9562 42.0694 78.4062 42.0065 79.5734 41.3714C81.043 40.5613 81.7691 39.1241 81.9371 36.7109C82.2882 31.8879 81.237 29.5834 78.4333 29.0079" fill="#231F20"/>
<path d="M84.0969 40.2798H84.2476C84.37 40.2798 84.4849 40.273 84.4849 40.1276C84.4849 39.9972 84.3798 39.9835 84.2855 39.9835H84.0969V40.2798ZM83.9734 39.8668H84.2963C84.5077 39.8668 84.6063 39.948 84.6063 40.1334C84.6063 40.3004 84.5055 40.3702 84.3733 40.3851L84.628 40.7959H84.4947L84.2541 40.3965H84.0969V40.7959H83.9734V39.8668ZM84.2584 41.011C84.6149 41.011 84.9021 40.7146 84.9021 40.3222C84.9021 39.9366 84.6149 39.6391 84.2584 39.6391C83.9008 39.6391 83.6136 39.9366 83.6136 40.3302C83.6136 40.7146 83.9008 41.011 84.2584 41.011V41.011ZM84.2584 39.5235C84.6746 39.5235 85.0246 39.869 85.0246 40.3222C85.0246 40.7833 84.6746 41.1277 84.2584 41.1277C83.8412 41.1277 83.4922 40.7833 83.4922 40.3302C83.4922 39.869 83.8412 39.5235 84.2584 39.5235Z" fill="#231F20"/>
</g>
<defs>
<clipPath id="clip0">
<rect width="66" height="34" fill="white" transform="translate(39 14)"/>
</clipPath>
</defs>
</svg>
